# AST/ASF file generated using VICON BodyLanguage
# -----------------------------------------------
:version 1.10
:name VICON
:units
  mass 1.0
  length 0.45
  angle deg
:documentation
   .ast/.asf automatically generated from VICON data using
   VICON BodyBuilder and BodyLanguage model FoxedUp or BRILLIANT.MOD
:root
   order TX TY TZ RX RY RZ
   axis XYZ
   position 0 0 0  
   orientation 0 0 0 
:bonedata
  begin
     id 1 
     name lhipjoint
     direction 0.624716 -0.669793 0.401383 
     length 2.38238 
     axis 0 0 0  XYZ
  end
  begin
     id 2 
     name lfemur
     direction 0.34202 -0.939693 0  
     length 6.4574  
     axis 0 0 20  XYZ
    dof rx ry rz
    limits (-160.0 20.0)
           (-70.0 70.0)
           (-60.0 70.0)
  end
  begin
     id 3 
     name ltibia
     direction 0.34202 -0.939693 0   
     length 7.68739   
     axis 0 0 20   XYZ
    dof rx
    limits (-10.0 170.0)
  end
  begin
     id 4 
     name lfoot
     direction 0.0681309 -0.187188 0.979959   
     length 2.46615   
     axis -90 7.62852e-016 20   XYZ
    dof rx rz
    limits (-45.0 90.0)
           (-70.0 20.0)
  end
  begin
     id 5 
     name ltoes
     direction 1.53566e-011 -4.21819e-011 1   
     length 1.2376   
     axis -90 7.62852e-016 20   XYZ
    dof rx
    limits (-90.0 20.0)
  end
  begin
     id 6 
     name rhipjoint
     direction -0.644473 -0.655875 0.393043   
     length 2.43293  
     axis 0 0 0  XYZ 
  end
  begin
     id 7 
     name rfemur
     direction -0.34202 -0.939693 0   
     length 6.7025   
     axis 0 0 -20   XYZ
    dof rx ry rz
    limits (-160.0 20.0)
           (-70.0 70.0)
           (-70.0 60.0)
  end
  begin
     id 8 
     name rtibia
     direction -0.34202 -0.939693 0   
     length 7.80547   
     axis 0 0 -20   XYZ
    dof rx
    limits (-10.0 170.0)
 end
 begin
     id 9 
     name rfoot
     direction -0.0756734 -0.207911 0.975216   
     length 2.40315  
     axis -90 -7.62852e-016 -20   XYZ
    dof rx rz
    limits (-45.0 90.0)
           (-20.0 70.0)
  end
  begin
     id 10 
     name rtoes
     direction -1.5353e-011 -4.21879e-011 1   
     length 1.20477   
     axis -90 -7.62852e-016 -20   XYZ
    dof rx
    limits (-90.0 20.0)
  end
  begin
     id 11 
     name lowerback
     direction 0.0160353 0.987463 -0.157037   
     length 2.18572   
     axis 0 0 0   XYZ
    dof rx ry rz
    limits (-20.0 45.0)
           (-30.0 30.0)
           (-30.0 30.0)
  end
  begin
     id 12 
     name upperback
     direction -0.00499661 0.999756 0.0215076   
     length 2.18016   
     axis 0 0 0   XYZ
    dof rx ry rz
    limits (-20.0 45.0)
           (-30.0 30.0)
           (-30.0 30.0)
  end
  begin
     id 13 
     name thorax
     direction -0.00921346 0.995333 0.0960619   
     length 2.24923   
     axis 0 0 0   XYZ
    dof rx ry rz
    limits (-20.0 45.0)
           (-30.0 30.0)
           (-30.0 30.0)
  end
  begin
     id 14 
     name lowerneck
     direction 0.0274184 0.991181 0.12965   
     length 1.70911   
     axis 0 0 0   XYZ
    dof rx ry rz
    limits (-20.0 45.0)
           (-30.0 30.0)
           (-30.0 30.0)
  end
  begin
     id 15 
     name upperneck
     direction 0.0015627 0.999959 -0.00893559   
     length 1.69312   
     axis 0 0 0   XYZ
    dof rx ry rz
    limits (-20.0 45.0)
           (-30.0 30.0)
           (-30.0 30.0)
  end
  begin
     id 16
     name head
     direction -0.00230242 0.999856 -0.0168327  
     length 1.80241  
     axis 0 0 0   XYZ
    dof rx ry rz
    limits (-20.0 45.0)
           (-30.0 30.0)
           (-30.0 30.0)
  end
  begin
     id 17 
     name lclavicle
     direction 0.955523 0.290741 -0.0494489  
     length 3.84275  
     axis 0 0 0   XYZ
    dof ry rz
    limits (-20.0 10.0)
           (0.0 20.0)
  end
  begin
     id 18 
     name lhumerus
     direction 1 -4.48967e-011 -3.18382e-028   
     length 5.17714   
     axis 180 -30 -90   XYZ
    dof rx ry rz
    limits (-60.0 90.0)
           (-90.0 90.0)
           (-90.0 90.0)
  end
  begin
     id 19
     name lradius
     direction 1 -4.48968e-011 -2.22911e-027   
     length 3.43679   
     axis 180 -30 -90   XYZ
    dof rx
    limits (-10.0 170.0)
  end
  begin
     id 20
     name lwrist
     direction 1 -4.48951e-011 -6.32245e-027   
     length 1.7184   
     axis 3.57107e-015 90 90   XYZ
    dof ry
    limits (-180.0 0.0)
 end
  begin
     id 21 
     name lhand
     direction 1 -4.48924e-011 -1.26431e-026   
     length 0.573117   
     axis 8.06912e-015 90 90   XYZ
    dof rx rz
    limits (-90.0 90.0)
           (-45.0 45.0)
  end
  begin
     id 22 
     name lfingers
     direction 1 -4.49001e-011 -2.52965e-026   
     length 0.462062   
     axis 1.61381e-014 90 90   XYZ
    dof rx
    limits (0.0 90.0)
  end
  begin
     id 23
     name lthumb
     direction 0.707107 -6.35008e-011 0.707107   
     length 0.663431   
     axis -90 45 -1.62303e-014   XYZ
    dof rx rz
    limits (-45.0 45.0)
           (-45.0 45.0)
  end
  begin
     id 24 
     name rclavicle
     direction -0.963917 0.256881 -0.0698287   
     length 3.73057  
     axis 0 0 0   XYZ 
    dof ry rz
    limits (-10.0 20.0)
           (-20.0 0.0)
  end
  begin
     id 25 
     name rhumerus
     direction -1 -4.48962e-011 -2.73982e-027  
     length 5.23908   
     axis 180 30 90   XYZ
    dof rx ry rz
    limits (-90.0 60.0)
           (-90.0 90.0)
           (-90.0 90.0)
  end
  begin
     id 26 
     name rradius
     direction -1 -4.48968e-011 -4.33218e-027   
     length 3.46485   
     axis 180 30 90   XYZ
    dof rx
    limits (-10.0 170.0)
  end
  begin
     id 27 
     name rwrist
     direction -1 -4.48989e-011 -6.32372e-027   
     length 1.73243   
     axis 3.57107e-015 -90 -90   XYZ
    dof ry
    limits (-180.0 0.0)
  end
  begin
     id 28
     name rhand
     direction -1 -4.48948e-011 -1.26448e-026   
     length 0.608752   
     axis 8.06912e-015 -90 -90   XYZ
    dof rx rz
    limits (-90.0 90.0)
           (-45.0 45.0)
  end
  begin
     id 29
     name rfingers
     direction -1 -4.48962e-011 -2.52913e-026   
     length 0.490792   
     axis 1.61381e-014 -90 -90   XYZ
    dof rx
    limits (0.0 90.0)
  end
  begin
     id 30
     name rthumb
     direction -0.707107 -6.34878e-011 0.707107   
     length 0.704682   
     axis -90 -45 1.62303e-014   XYZ
    dof rx rz
    limits (-45.0 45.0)
           (-45.0 45.0)
  end
:hierarchy
  begin
    root lhipjoint rhipjoint lowerback
    lhipjoint lfemur
    lfemur ltibia
    ltibia lfoot
    lfoot ltoes
    rhipjoint rfemur
    rfemur rtibia
    rtibia rfoot
    rfoot rtoes
    lowerback upperback
    upperback thorax
    thorax lowerneck lclavicle rclavicle
    lowerneck upperneck
    upperneck head
    lclavicle lhumerus
    lhumerus lradius
    lradius lwrist
    lwrist lhand lthumb
    lhand lfingers
    rclavicle rhumerus
    rhumerus rradius
    rradius rwrist
    rwrist rhand rthumb
    rhand rfingers
  end

#!OML:ASF G:\JayActor3\Patient Classification 1\Patient 1\Session 6\male.ASF
:FULLY-SPECIFIED
:DEGREES
649
root 20.9533 15.8697 -10.6678 -7.58207 -151.611 5.52946
lowerback 1.6351 -1.35165 5.07072
upperback -1.3177 -1.72022 2.58991
thorax -2.3413 -0.962955 -0.109272
lowerneck -1.12956 6.26162 7.82768
upperneck 10.6681 8.25331 -4.38912
head 3.88448 4.10197 -2.271
rclavicle 3.37934e-015 -1.59028e-014
rhumerus -29.2097 -0.280943 -75.9367
rradius 43.0459
rwrist -3.2951
rhand -26.1887 -15.9831
rfingers 7.12502
rthumb 0.363536 -45.9625
lclavicle 3.37934e-015 -1.59028e-014
lhumerus -23.7911 8.94831 70.9334
lradius 16.1202
lwrist 16.7928
lhand -19.1758 8.83443
lfingers 7.12502
lthumb 7.13548 38.6941
rfemur -8.6317 12.6216 11.6693
rtibia 26.736
rfoot -15.8954 -14.14
rtoes -1.28514
lfemur 2.47107 5.35945 -9.00194
ltibia 29.0228
lfoot -22.8527 29.1233
ltoes -2.54064
650
root 20.8468 15.8663 -10.674 -7.70685 -151.744 5.26802
lowerback 1.50663 -1.36392 4.7092
upperback -1.47591 -1.74494 2.53914
thorax -2.42342 -0.971502 0.0399729
lowerneck -0.994595 6.2703 7.92168
upperneck 11.654 8.21015 -4.12323
head 4.15405 4.0795 -2.20104
rclavicle 3.18055e-014 1.66979e-014
rhumerus -29.1119 0.35636 -75.9266
rradius 43.3733
rwrist -2.77532
rhand -26.5316 -15.8141
rfingers 7.12502
rthumb 0.0323245 -45.7939
lclavicle 3.18055e-014 1.66979e-014
lhumerus -24.1153 9.01265 70.5297
lradius 16.098
lwrist 17.0075
lhand -18.8593 9.12114
lfingers 7.12502
lthumb 7.44096 38.9703
rfemur -8.22648 13.1264 11.3224
rtibia 26.8623
rfoot -16.14 -14.6735
rtoes -1.26196
lfemur 3.30205 5.5059 -9.51224
ltibia 28.5138
lfoot -22.6566 29.2073
ltoes -2.94554
651
root 20.7435 15.8642 -10.6839 -7.76883 -151.824 5.0251
lowerback 1.31158 -1.38419 4.34456
upperback -1.67683 -1.7839 2.48091
thorax -2.5123 -0.987615 0.182962
lowerneck -0.905388 6.27198 8.01473
upperneck 12.6786 8.14323 -3.85082
head 4.44289 4.04406 -2.12897
rclavicle -7.77745e-014 7.15625e-015
rhumerus -29.1413 0.885365 -75.9184
rradius 43.7163
rwrist -2.30579
rhand -26.8875 -15.6373
rfingers 7.12502
rthumb -0.31147 -45.6169
lclavicle -7.77745e-014 7.15625e-015
lhumerus -24.4605 8.82922 70.1973
lradius 16.1638
lwrist 17.4098
lhand -18.4271 9.43107
lfingers 7.12502
lthumb 7.85813 39.265
rfemur -7.92103 13.5764 11.0103
rtibia 27.0725
rfoot -16.4781 -15.2513
rtoes -0.955009
lfemur 4.04041 5.8495 -9.91159
ltibia 28.0067
lfoot -22.4236 29.0202
ltoes -3.47501
652
root 20.6428 15.8629 -10.6977 -7.78659 -151.854 4.80648
lowerback 1.04063 -1.4057 3.9988
upperback -1.89655 -1.82878 2.40889
thorax -2.57853 -1.00691 0.29969
lowerneck -0.871538 6.2599 8.08716
upperneck 13.7047 8.0439 -3.5648
head 4.73986 3.99177 -2.05021
rclavicle 2.10215e-014 -2.22639e-014
rhumerus -29.2801 1.29838 -75.9135
rradius 44.0918
rwrist -1.92793
rhand -27.2157 -15.4577
rfingers 7.12502
rthumb -0.628426 -45.4365
lclavicle 2.10215e-014 -2.22639e-014
lhumerus -24.7857 8.40495 69.9373
lradius 16.3227
lwrist 18.006
lhand -17.8656 9.74942
lfingers 7.12502
lthumb 8.4 39.5624
rfemur -7.69352 13.9216 10.7318
rtibia 27.3608
rfoot -16.9016 -15.8189
rtoes -0.391723
lfemur 4.7094 6.36419 -10.1968
ltibia 27.5036
lfoot -22.1644 28.5914
ltoes -4.09873
653
root 20.5438 15.8617 -10.7155 -7.77733 -151.839 4.60352
lowerback 0.701508 -1.42598 3.67243
upperback -2.11675 -1.87572 2.32208
thorax -2.60755 -1.02728 0.38836
lowerneck -0.901988 6.23389 8.12413
upperneck 14.7017 7.91428 -3.26687
head 5.0369 3.92387 -1.96288
rclavicle -1.59028e-015 5.96354e-014
rhumerus -29.5137 1.59718 -75.9063
rradius 44.5153
rwrist -1.65944
rhand -27.4928 -15.2866
rfingers 7.12502
rthumb -0.896064 -45.2644
lclavicle -1.59028e-015 5.96354e-014
lhumerus -25.0678 7.82324 69.7332
lradius 16.5682
lwrist 18.7401
lhand -17.1695 10.0588
lfingers 7.12502
lthumb 9.07175 39.8437
rfemur -7.5186 14.1075 10.4724
rtibia 27.7124
rfoot -17.388 -16.3322
rtoes 0.388539
lfemur 5.34679 6.99013 -10.3975
ltibia 26.9949
lfoot -21.8894 27.9932
ltoes -4.80936
